<svg width="289" height="86" viewBox="0 0 289 86" fill="none" xmlns="http://www.w3.org/2000/svg">
<g clip-path="url(#clip0_1_2)">
<path d="M55.157 24.0069H65.6638V7.76213H68.8428V15.7092H71.5484V7.76213H74.815V32.6611H71.5484V18.742H68.8428V32.6611H65.6638V27.0397H53.8889C53.1818 27.0397 52.6617 26.9228 52.3286 26.6891C51.8962 26.3969 51.68 25.8827 51.68 25.1581V7.76213H62.9232V10.7949H55.1511V24.0069H55.157Z" fill="white"/>
<path d="M94.6834 11.7357C95.2327 12.2265 95.6652 12.7933 95.9807 13.442C96.3314 14.1315 96.5125 14.8444 96.5125 15.5924C96.5125 17.5324 95.7762 19.1218 94.3036 20.3606C92.9128 21.5585 91.2357 22.1546 89.2722 22.1546C87.3088 22.1546 85.655 21.5585 84.2408 20.3606C82.7507 19.1043 82.0027 17.5149 82.0027 15.5924C82.0027 14.8444 82.1488 14.1432 82.4468 13.4712C82.7215 12.8635 83.1305 12.285 83.6857 11.7357H81.0093V8.76136H87.4256V6.37723H91.1363V8.76136H97.4358V11.7357H94.701H94.6834ZM82.9435 23.8609H86.3855V29.4823H105.161V32.515H84.9713C84.2817 32.515 83.785 32.3456 83.4695 32.0125C83.1188 31.6619 82.9377 31.0892 82.9377 30.3062V23.8609H82.9435ZM86.59 13.0271C85.842 13.7341 85.4738 14.5873 85.4738 15.5865C85.4738 16.5858 85.8478 17.4097 86.59 18.1167C87.338 18.8238 88.2204 19.1744 89.2371 19.1744C90.2539 19.1744 91.1013 18.8238 91.8843 18.1167C92.7083 17.3921 93.1232 16.5448 93.1232 15.5865C93.1232 14.6282 92.7083 13.7341 91.8843 13.0271C91.1188 12.3609 90.2364 12.0279 89.2371 12.0279C88.2379 12.0279 87.3321 12.3609 86.59 13.0271ZM104.957 17.211V24.5679H101.515V7.76213H104.957V14.149H108.428V17.211H104.957Z" fill="white"/>
<path d="M126.327 11.8233H131.656V7.76213H135.098V19.712H131.656V14.8561H126.327V16.8546C126.327 17.6785 126.152 18.2745 125.795 18.6485C125.462 18.9816 124.959 19.151 124.293 19.151H113.962C113.272 19.151 112.775 18.9874 112.46 18.6485C112.127 18.2979 111.957 17.696 111.957 16.8546V7.76213H115.399V10.1755H122.932V7.76213H126.315V11.8233H126.327ZM113.079 21.8565H116.463V24.2991H131.68V21.8565H135.092V30.3003C135.092 31.1067 134.905 31.6852 134.531 32.0359C134.216 32.3689 133.719 32.5384 133.029 32.5384H115.136C114.447 32.5384 113.938 32.3689 113.605 32.0359C113.255 31.6852 113.073 31.1126 113.073 30.3296V21.8565H113.079ZM115.405 16.1475H122.938V12.9979H115.405V16.1475ZM131.68 27.1274H116.463V29.5407H131.68V27.1274Z" fill="white"/>
<path d="M165.263 22.0669V28.6583H145.605V29.6576H165.263V32.515H144.162C143.455 32.515 142.946 32.3456 142.631 32.0125C142.28 31.6794 142.099 31.1126 142.099 30.3062V25.8944H161.757V24.8951H142.099V22.0728H146.336V20.9859H141.216V18.0992H166.116V20.9859H161.026V22.0728H165.263V22.0669ZM144.162 17.1467C143.496 17.1467 142.993 16.9831 142.66 16.6442C142.286 16.2702 142.099 15.6859 142.099 14.8795V11.2273H161.757V10.3742H142.099V7.75629H165.263V13.6991H145.605V14.5814H165.263V17.1409H144.162V17.1467ZM157.608 22.0669V20.98H149.748V22.0669H157.608Z" fill="white"/>
<path d="M196.638 19.2679V22.3299H185.307V32.778H181.894V22.3299H171.358V19.2679H191.928V10.7598H172.24V7.75629H195.375V19.2621H196.638V19.2679Z" fill="white"/>
<path d="M215.618 20.7989V28.2435H226.388V31.3054H201.488V28.2435H212.258V20.7989H215.612H215.618ZM215.793 11.35C215.986 13.5472 216.968 15.1074 218.738 16.0306C220.036 16.6968 222.163 17.1467 225.126 17.3863V20.6528C222.712 20.5184 220.591 20.121 218.768 19.4783C216.529 18.6543 214.905 17.4973 213.882 16.0073C212.842 17.5382 211.194 18.7069 208.939 19.5075C207.133 20.1327 205.023 20.5184 202.61 20.6528V17.4155C205.573 17.1584 207.711 16.6909 209.026 16.0014C210.773 15.0781 211.744 13.5296 211.942 11.35H203.083V8.28804H224.775V11.35H215.799H215.793Z" fill="white"/>
<path d="M256.909 17.4447V20.4775H250.756C251.562 21.167 252.187 21.95 252.637 22.8324C253.146 23.7732 253.403 24.7841 253.403 25.8652C253.403 28.296 252.433 30.3062 250.487 31.8956C248.699 33.3857 246.589 34.1337 244.158 34.1337C241.727 34.1337 239.518 33.3857 237.713 31.8956C235.79 30.3062 234.826 28.296 234.826 25.8652C234.826 24.8075 235.06 23.7966 235.533 22.8324C235.965 21.9676 236.591 21.1846 237.415 20.4775H231.618V17.4447H240.769V13.2959H244.182V17.4447H252.187V10.7949H232.5V7.76213H255.635V17.4447H256.903H256.909ZM240.284 22.1253C239.168 23.1655 238.607 24.4101 238.607 25.8652C238.607 27.3202 239.168 28.5239 240.284 29.5465C241.365 30.5691 242.639 31.0775 244.112 31.0775C245.584 31.0775 246.829 30.5691 247.91 29.5465C249.049 28.5239 249.616 27.3027 249.616 25.8652C249.616 24.4277 249.049 23.1655 247.91 22.1253C246.811 21.1261 245.543 20.6236 244.112 20.6236C242.68 20.6236 241.383 21.1261 240.284 22.1253Z" fill="white"/>
<path d="M266.125 17.5908H282.341V7.76213H285.783V13.0621H289.254V16.1241H285.783V24.5679H282.341V20.5944H264.71C264.003 20.5944 263.495 20.4307 263.179 20.0918C262.829 19.7412 262.648 19.1627 262.648 18.3563V7.76213H276.865V10.7949H266.125V17.5908ZM263.77 23.9485H267.212V29.4823H285.987V32.515H265.827C265.143 32.515 264.629 32.3456 264.295 32.0125C263.945 31.6619 263.764 31.0892 263.764 30.3062V23.9485H263.77Z" fill="white"/>
<path d="M7.7214 19.4927C7.7214 11.7501 13.9981 5.47356 21.7411 5.47356C23.2472 5.47356 24.695 5.71331 26.0536 6.15285C23.8036 4.71128 21.1324 3.87216 18.2615 3.87216C10.2757 3.87216 3.79922 10.3454 3.79922 18.334C3.79922 26.3225 9.70094 32.1995 17.1826 32.7496C11.6774 30.8593 7.71833 25.6402 7.71833 19.4927H7.7214Z" fill="url(#paint0_radial_1_2)"/>
<path d="M23.2472 29.8143C21.3138 30.8378 19.1099 31.4187 16.7707 31.4187C9.11077 31.4187 2.8986 25.2068 2.8986 17.5471C2.8986 12.58 5.51133 8.22453 9.43659 5.77479C9.48577 5.74712 9.53495 5.71638 9.58106 5.6918C10.6907 4.94488 11.911 4.34859 13.2205 3.94593C9.25831 5.08935 5.86175 7.55446 3.52873 10.831C0.768444 14.5226 -0.559443 19.2807 0.221305 24.1955C1.75514 33.85 10.8413 40.4308 20.5115 38.894C23.6253 38.3991 26.4194 37.1205 28.7278 35.2947L23.2472 29.8143Z" fill="url(#paint1_radial_1_2)"/>
<path d="M26.9266 8.49194C26.9266 8.49194 20.2626 1.77897 12.535 10.8372C4.80743 19.8954 13.3649 10.6896 15.907 11.1138C15.907 11.1138 9.58106 22.588 13.6047 28.9075C14.6498 28.0376 16.6201 13.5205 22.9398 11.9068C25.4296 11.2706 27.0126 11.5226 27.9594 12.5523C29.1643 13.8617 29.4133 11.2275 26.9266 8.48887V8.49194Z" fill="#222D8E"/>
<path d="M19.1037 3.38651C18.6795 2.00642 19.4541 0.540262 20.8374 0.116091C22.2175 -0.308081 23.6837 0.466493 24.1079 1.84659C24.5321 3.22668 23.7575 4.69284 22.3773 5.11701C20.9972 5.54118 19.531 4.76661 19.1068 3.38651H19.1037Z" fill="#222D8E"/>
<path d="M29.6653 9.03292C29.6223 9.00218 29.5424 8.94685 29.4225 8.86079C29.3026 8.77472 29.1612 8.64563 28.9891 8.46735L28.6756 8.14154L30.3877 6.49096L31.1961 7.33008L30.8334 7.67741L30.3846 7.21328L29.3979 8.16613L29.5086 8.27986C29.5885 8.36285 29.6807 8.44276 29.7852 8.52268C29.8897 8.6026 29.9666 8.65792 30.0127 8.69173L29.6623 9.02984L29.6653 9.03292ZM30.0373 10.5759L29.6869 10.2132L30.8457 9.09746L30.6859 8.93148L29.6408 9.93966L29.2903 9.57696L31.6141 7.33315L31.9646 7.69585L31.107 8.52268L31.2668 8.68866L32.1797 7.80651L32.5301 8.1692L30.0373 10.5728V10.5759Z" fill="#222D8E"/>
<path d="M31.8662 13.33L30.652 11.3044L31.4912 10.8003L31.7771 11.2767L31.3498 11.5318L32.2781 13.0779L31.8662 13.3238V13.33ZM32.8898 11.6947C32.7392 11.7839 32.5701 11.7839 32.3826 11.6947C32.192 11.6056 32.0322 11.4488 31.8969 11.2214C31.7709 11.0124 31.7125 10.8003 31.7187 10.5851C31.7279 10.37 31.8047 10.2194 31.9584 10.1272C32.1182 10.0319 32.2904 10.0319 32.481 10.1272C32.6715 10.2224 32.8314 10.3761 32.9574 10.5882C33.0926 10.8157 33.1541 11.0308 33.1449 11.2368C33.1326 11.4427 33.0496 11.5933 32.8898 11.6886V11.6947ZM32.6193 11.2368C32.6746 11.203 32.6961 11.1446 32.6777 11.0616C32.6623 10.9786 32.6316 10.8987 32.5855 10.8218C32.5394 10.745 32.481 10.6773 32.4133 10.6189C32.3457 10.5636 32.2873 10.5513 32.232 10.5821C32.1736 10.6159 32.1551 10.6773 32.1766 10.7603C32.1982 10.8433 32.232 10.9263 32.2781 11.0032C32.3242 11.08 32.3795 11.1446 32.441 11.1999C32.5055 11.2552 32.5639 11.2675 32.6162 11.2337L32.6193 11.2368ZM33.6029 12.6507L33.397 12.3095L32.5332 12.8259L32.2658 12.3771L34.4543 11.0646L34.7218 11.5134L33.8427 12.039L34.0486 12.3802L33.5998 12.6476L33.6029 12.6507ZM33.523 11.4089L32.5055 9.7122L32.8928 9.4786L33.9103 11.1753L33.523 11.4089ZM33.7843 10.7296L33.2248 9.79519L33.6029 9.56774L34.1623 10.5021L33.7843 10.7296Z" fill="#222D8E"/>
<path d="M32.9451 16.5543L32.2473 14.3474L33.6213 13.914L33.7781 14.4119L33.5076 14.498L33.8888 15.7059L34.1593 15.6199L34.3191 16.1209L32.9451 16.5543ZM33.2402 15.9088L33.4431 15.8442L33.0619 14.6363L32.859 14.7008L33.2402 15.9088ZM34.4267 16.0963L34.2699 15.5984L34.9462 15.3832L34.7925 14.8945L34.1777 15.0881L33.6828 13.5175L35.2966 13.0072L35.4533 13.5021L35.0476 13.6312L35.232 14.2121L35.6378 14.083L35.7945 14.5779L35.275 14.7439L35.4287 15.2326L36.0589 15.0328L36.2156 15.5307L34.4298 16.0963H34.4267ZM34.4943 14.4488L34.7586 14.3658L34.5742 13.7849L34.3099 13.8679L34.4943 14.4488Z" fill="#222D8E"/>
<path d="M34.4912 17.7038L34.6664 17.6915L34.6142 16.9662L35.0015 16.9385L35.2289 20.0429L34.8416 20.0706L34.7894 19.3575L34.6142 19.3698L34.6388 19.714L33.7873 19.7755L33.6552 17.9682L33.5383 17.9774L33.6736 19.8524L33.2771 19.88L33.0988 17.4395L33.9687 17.375L34.1009 19.1823L34.2177 19.1731L34.0855 17.3657L34.4636 17.3381L34.4912 17.6977V17.7038ZM34.5742 18.835L34.7494 18.8227L34.7064 18.2141L34.5312 18.2264L34.5742 18.835ZM35.3058 19.7171L35.1306 17.295L36.0005 17.2305L36.1326 19.0378L36.2494 19.0286L36.1173 17.2243L36.4954 17.1967L36.6675 19.5696L35.816 19.6311L35.6839 17.8237L35.5671 17.8329L35.7023 19.6864L35.3058 19.7171Z" fill="#222D8E"/>
<path d="M34.356 22.4005L32.9697 22.1792L33.0558 21.6505L34.442 21.8718L34.6326 20.6761L35.1275 20.756L34.7986 22.8216C34.9093 22.8615 35.0476 22.9076 35.2136 22.963C35.3796 23.0183 35.5332 23.0613 35.6654 23.0921L35.9667 21.2109L36.4646 21.2909L36.0712 23.7437C35.8406 23.6976 35.6039 23.6392 35.355 23.5685C35.106 23.4978 34.8939 23.424 34.7125 23.3441L34.6357 23.8328L34.1408 23.7529L34.356 22.4035V22.4005Z" fill="#222D8E"/>
<path d="M32.9605 23.9097L33.4277 24.0941L32.9512 25.2928L33.6152 25.5541L33.4185 26.049L32.7545 25.7846L32.2781 26.9864L31.8109 26.802L32.9605 23.9097ZM32.8806 26.7067C32.9512 26.593 33.0926 26.4547 33.3017 26.2887C33.5107 26.1227 33.7258 26.0182 33.9533 25.9752C33.8334 25.8184 33.7504 25.6125 33.7013 25.3512C33.6552 25.09 33.6429 24.8779 33.6705 24.7119L34.1623 24.5674C34.1254 24.8195 34.147 25.09 34.2269 25.382C34.3068 25.674 34.4605 25.8645 34.6972 25.9598L34.7341 25.9752L35.0783 25.1084L35.5455 25.2928L34.6418 27.5674L34.1746 27.3829L34.5189 26.5162L34.482 26.5008C34.23 26.3994 33.9748 26.4455 33.7105 26.633C33.4461 26.8205 33.2556 26.9926 33.1387 27.1463L32.8775 26.7037L32.8806 26.7067Z" fill="#222D8E"/>
<path d="M30.1602 29.1257C30.1602 28.8676 30.277 28.5663 30.5076 28.2159C30.735 27.8717 30.9656 27.6473 31.2023 27.5428C31.4389 27.4383 31.6449 27.4444 31.8232 27.5612C32.0014 27.678 32.0875 27.8655 32.0844 28.1176C32.0814 28.3727 31.9646 28.6739 31.734 29.0212C31.5035 29.3686 31.2729 29.5991 31.0393 29.7036C30.8057 29.8112 30.5998 29.805 30.4215 29.6882C30.2432 29.5714 30.1572 29.3839 30.1572 29.1257H30.1602ZM31.0209 29.1534C31.1254 29.0735 31.233 28.9475 31.3498 28.7723C31.4666 28.594 31.5404 28.4434 31.5711 28.3204C31.6018 28.1975 31.5803 28.1114 31.5066 28.0622C31.4205 28.0038 31.3252 28.0161 31.2207 28.0899C31.1193 28.1667 31.0086 28.2928 30.8918 28.471C30.775 28.6462 30.7043 28.7969 30.6736 28.9229C30.6428 29.0489 30.6736 29.1411 30.7565 29.1995C30.8303 29.2487 30.9195 29.2333 31.0209 29.1534ZM32.6961 27.7979L33.1172 28.0745L32.5148 28.9874L32.9512 29.2733L32.65 29.7313L32.2135 29.4454L31.4051 30.6749L30.9871 30.3983L32.6992 27.7979H32.6961ZM32.1582 30.7517C32.0014 30.6165 31.8754 30.4874 31.774 30.3675L32.0537 29.9433C32.1367 30.0263 32.2166 30.1063 32.2996 30.18C32.3795 30.2569 32.4656 30.3245 32.5578 30.389L33.6152 28.7815L34.0363 29.0581L32.6592 31.1482C32.481 31.0161 32.315 30.8839 32.1582 30.7487V30.7517Z" fill="#222D8E"/>
<path d="M27.5813 31.8306L29.2196 30.1554L30.0742 30.9915L29.7084 31.3634L29.2135 30.8778L27.9409 32.1779L27.5813 31.8275V31.8306ZM28.6971 33.3828L28.9891 33.0847L28.2698 32.3808L28.6356 32.0089L30.4276 33.764L30.0619 34.1359L29.3457 33.4351L29.0537 33.7332L28.694 33.3828H28.6971ZM29.2903 32.3992C29.3549 32.2947 29.4686 32.138 29.6285 31.9259C29.7883 31.7138 29.9512 31.5263 30.111 31.3603L30.5106 30.9515L31.7494 32.1656L30.5998 33.3398L30.234 32.9832L31.0178 32.181L30.5076 31.6831L30.2955 31.8982C30.2125 31.9843 30.0957 32.1226 29.9481 32.3162C29.8006 32.5099 29.6961 32.6513 29.6377 32.7435L29.2873 32.3992H29.2903Z" fill="#222D8E"/>
<path d="M55.157 70.1236H65.6638V53.8788H68.8428V61.8259H71.5484V53.8788H74.815V78.7778H71.5484V64.8587H68.8428V78.7778H65.6638V73.1564H53.8889C53.1818 73.1564 52.6617 73.0395 52.3286 72.8058C51.8962 72.5136 51.68 71.9994 51.68 71.2748V53.8788H62.9232V56.9116H55.1511V70.1236H55.157Z" fill="#222D8E"/>
<path d="M94.6834 57.8524C95.2327 58.3432 95.6652 58.91 95.9807 59.5587C96.3314 60.2482 96.5125 60.9611 96.5125 61.709C96.5125 63.6491 95.7762 65.2385 94.3036 66.4773C92.9128 67.6752 91.2357 68.2713 89.2722 68.2713C87.3088 68.2713 85.655 67.6752 84.2408 66.4773C82.7507 65.221 82.0027 63.6315 82.0027 61.709C82.0027 60.9611 82.1488 60.2599 82.4468 59.5879C82.7215 58.9802 83.1305 58.4017 83.6857 57.8524H81.0093V54.878H87.4256V52.4939H91.1363V54.878H97.4358V57.8524H94.701H94.6834ZM82.9435 69.9775H86.3855V75.5989H105.161V78.6317H84.9713C84.2817 78.6317 83.785 78.4622 83.4695 78.1292C83.1188 77.7786 82.9377 77.2059 82.9377 76.4229V69.9775H82.9435ZM86.59 59.1438C85.842 59.8508 85.4738 60.704 85.4738 61.7032C85.4738 62.7024 85.8478 63.5264 86.59 64.2334C87.338 64.9405 88.2204 65.2911 89.2371 65.2911C90.2539 65.2911 91.1013 64.9405 91.8843 64.2334C92.7083 63.5088 93.1232 62.6615 93.1232 61.7032C93.1232 60.7449 92.7083 59.8508 91.8843 59.1438C91.1188 58.4776 90.2364 58.1445 89.2371 58.1445C88.2379 58.1445 87.3321 58.4776 86.59 59.1438ZM104.957 63.3277V70.6846H101.515V53.8788H104.957V60.2657H108.428V63.3277H104.957Z" fill="#222D8E"/>
<path d="M126.327 57.94H131.656V53.8788H135.098V65.8287H131.656V60.9728H126.327V62.9712C126.327 63.7952 126.152 64.3912 125.795 64.7652C125.462 65.0983 124.959 65.2677 124.293 65.2677H113.962C113.272 65.2677 112.775 65.1041 112.46 64.7652C112.127 64.4146 111.957 63.8127 111.957 62.9712V53.8788H115.399V56.2922H122.932V53.8788H126.315V57.94H126.327ZM113.079 67.9732H116.463V70.4158H131.68V67.9732H135.092V76.417C135.092 77.2234 134.905 77.8019 134.531 78.1525C134.216 78.4856 133.719 78.6551 133.029 78.6551H115.136C114.447 78.6551 113.938 78.4856 113.605 78.1525C113.255 77.8019 113.073 77.2293 113.073 76.4462V67.9732H113.079ZM115.405 62.2642H122.938V59.1146H115.405V62.2642ZM131.68 73.244H116.463V75.6574H131.68V73.244Z" fill="#222D8E"/>
<path d="M165.263 68.1836V74.775H145.605V75.7742H165.263V78.6317H144.162C143.455 78.6317 142.946 78.4622 142.631 78.1292C142.28 77.7961 142.099 77.2293 142.099 76.4229V72.0111H161.757V71.0118H142.099V68.1894H146.336V67.1026H141.216V64.2159H166.116V67.1026H161.026V68.1894H165.263V68.1836ZM144.162 63.2634C143.496 63.2634 142.993 63.0998 142.66 62.7609C142.286 62.3869 142.099 61.8025 142.099 60.9961V57.344H161.757V56.4908H142.099V53.873H165.263V59.8158H145.605V60.6981H165.263V63.2576H144.162V63.2634ZM157.608 68.1836V67.0967H149.748V68.1836H157.608Z" fill="#222D8E"/>
<path d="M196.638 65.3846V68.4466H185.307V78.8947H181.894V68.4466H171.358V65.3846H191.928V56.8765H172.24V53.873H195.375V65.3787H196.638V65.3846Z" fill="#222D8E"/>
<path d="M215.618 66.9156V74.3601H226.388V77.4221H201.488V74.3601H212.258V66.9156H215.612H215.618ZM215.793 57.4667C215.986 59.6638 216.968 61.224 218.738 62.1473C220.036 62.8135 222.163 63.2634 225.126 63.503V66.7695C222.712 66.6351 220.591 66.2377 218.768 65.5949C216.529 64.771 214.905 63.614 213.882 62.1239C212.842 63.6549 211.194 64.8236 208.939 65.6242C207.133 66.2494 205.023 66.6351 202.61 66.7695V63.5322C205.573 63.2751 207.711 62.8076 209.026 62.1181C210.773 61.1948 211.744 59.6463 211.942 57.4667H203.083V54.4047H224.775V57.4667H215.799H215.793Z" fill="#222D8E"/>
<path d="M256.909 63.5614V66.5942H250.756C251.562 67.2837 252.187 68.0667 252.637 68.9491C253.146 69.8899 253.403 70.9008 253.403 71.9818C253.403 74.4127 252.433 76.4229 250.487 78.0123C248.699 79.5024 246.589 80.2503 244.158 80.2503C241.727 80.2503 239.518 79.5024 237.713 78.0123C235.79 76.4229 234.826 74.4127 234.826 71.9818C234.826 70.9242 235.06 69.9133 235.533 68.9491C235.965 68.0843 236.591 67.3012 237.415 66.5942H231.618V63.5614H240.769V59.4126H244.182V63.5614H252.187V56.9116H232.5V53.8788H255.635V63.5614H256.903H256.909ZM240.284 68.242C239.168 69.2822 238.607 70.5268 238.607 71.9818C238.607 73.4369 239.168 74.6406 240.284 75.6632C241.365 76.6858 242.639 77.1942 244.112 77.1942C245.584 77.1942 246.829 76.6858 247.91 75.6632C249.049 74.6406 249.616 73.4193 249.616 71.9818C249.616 70.5444 249.049 69.2822 247.91 68.242C246.811 67.2428 245.543 66.7403 244.112 66.7403C242.68 66.7403 241.383 67.2428 240.284 68.242Z" fill="#222D8E"/>
<path d="M266.125 63.7075H282.341V53.8788H285.783V59.1788H289.254V62.2408H285.783V70.6846H282.341V66.7111H264.71C264.003 66.7111 263.495 66.5474 263.179 66.2085C262.829 65.8579 262.648 65.2794 262.648 64.473V53.8788H276.865V56.9116H266.125V63.7075ZM263.77 70.0652H267.212V75.5989H285.987V78.6317H265.827C265.143 78.6317 264.629 78.4622 264.295 78.1292C263.945 77.7786 263.764 77.2059 263.764 76.4229V70.0652H263.77Z" fill="#222D8E"/>
<path d="M7.7214 65.6094C7.7214 57.8668 13.9981 51.5902 21.7411 51.5902C23.2472 51.5902 24.695 51.83 26.0536 52.2695C23.8036 50.828 21.1324 49.9888 18.2615 49.9888C10.2757 49.9888 3.79922 56.4621 3.79922 64.4506C3.79922 72.4392 9.70094 78.3161 17.1826 78.8663C11.6774 76.976 7.71833 71.7568 7.71833 65.6094H7.7214Z" fill="url(#paint2_radial_1_2)"/>
<path d="M23.2472 75.9309C21.3138 76.9545 19.1099 77.5354 16.7707 77.5354C9.11077 77.5354 2.8986 71.3234 2.8986 63.6638C2.8986 58.6967 5.51133 54.3412 9.43659 51.8915C9.48577 51.8638 9.53495 51.8331 9.58106 51.8085C10.6907 51.0616 11.911 50.4653 13.2205 50.0626C9.25831 51.206 5.86175 53.6711 3.52873 56.9477C0.768444 60.6392 -0.559443 65.3973 0.221305 70.3122C1.75514 79.9667 10.8413 86.5475 20.5115 85.0107C23.6253 84.5158 26.4194 83.2371 28.7278 81.4114L23.2472 75.9309Z" fill="url(#paint3_radial_1_2)"/>
<path d="M26.9266 54.6086C26.9266 54.6086 20.2626 47.8957 12.535 56.9539C4.80743 66.0121 13.3649 56.8063 15.907 57.2305C15.907 57.2305 9.58106 68.7046 13.6047 75.0242C14.6498 74.1543 16.6201 59.6372 22.9398 58.0235C25.4296 57.3873 27.0126 57.6393 27.9594 58.669C29.1643 59.9784 29.4133 57.3442 26.9266 54.6056V54.6086Z" fill="#222D8E"/>
<path d="M19.1037 49.5032C18.6795 48.1231 19.4541 46.6569 20.8374 46.2328C22.2175 45.8086 23.6837 46.5832 24.1079 47.9633C24.5321 49.3434 23.7575 50.8095 22.3773 51.2337C20.9972 51.6579 19.531 50.8833 19.1068 49.5032H19.1037Z" fill="#222D8E"/>
<path d="M29.6653 55.1496C29.6223 55.1189 29.5424 55.0635 29.4225 54.9775C29.3026 54.8914 29.1612 54.7623 28.9891 54.584L28.6756 54.2582L30.3877 52.6076L31.1961 53.4468L30.8334 53.7941L30.3846 53.33L29.3979 54.2828L29.5086 54.3965C29.5885 54.4795 29.6807 54.5594 29.7852 54.6394C29.8897 54.7193 29.9666 54.7746 30.0127 54.8084L29.6623 55.1465L29.6653 55.1496ZM30.0373 56.6926L29.6869 56.3299L30.8457 55.2141L30.6859 55.0482L29.6408 56.0563L29.2903 55.6936L31.6141 53.4498L31.9646 53.8125L31.107 54.6394L31.2668 54.8053L32.1797 53.9232L32.5301 54.2859L30.0373 56.6895V56.6926Z" fill="#222D8E"/>
<path d="M31.8662 59.4466L30.652 57.4211L31.4912 56.917L31.7771 57.3934L31.3498 57.6485L32.2781 59.1946L31.8662 59.4405V59.4466ZM32.8898 57.8114C32.7392 57.9006 32.5701 57.9006 32.3826 57.8114C32.192 57.7223 32.0322 57.5655 31.8969 57.3381C31.7709 57.1291 31.7125 56.917 31.7187 56.7018C31.7279 56.4867 31.8047 56.336 31.9584 56.2438C32.1182 56.1486 32.2904 56.1486 32.481 56.2438C32.6715 56.3391 32.8314 56.4928 32.9574 56.7049C33.0926 56.9323 33.1541 57.1475 33.1449 57.3534C33.1326 57.5594 33.0496 57.71 32.8898 57.8053V57.8114ZM32.6193 57.3534C32.6746 57.3196 32.6961 57.2612 32.6777 57.1782C32.6623 57.0953 32.6316 57.0153 32.5855 56.9385C32.5394 56.8617 32.481 56.794 32.4133 56.7356C32.3457 56.6803 32.2873 56.668 32.232 56.6987C32.1736 56.7326 32.1551 56.794 32.1766 56.877C32.1982 56.96 32.232 57.043 32.2781 57.1198C32.3242 57.1967 32.3795 57.2612 32.441 57.3166C32.5055 57.3719 32.5639 57.3842 32.6162 57.3504L32.6193 57.3534ZM33.6029 58.7674L33.397 58.4262L32.5332 58.9426L32.2658 58.4938L34.4543 57.1813L34.7218 57.6301L33.8427 58.1557L34.0486 58.4969L33.5998 58.7643L33.6029 58.7674ZM33.523 57.5256L32.5055 55.8289L32.8928 55.5953L33.9103 57.292L33.523 57.5256ZM33.7843 56.8463L33.2248 55.9119L33.6029 55.6844L34.1623 56.6188L33.7843 56.8463Z" fill="#222D8E"/>
<path d="M32.9451 62.671L32.2473 60.464L33.6213 60.0306L33.7781 60.5286L33.5076 60.6147L33.8888 61.8226L34.1593 61.7366L34.3191 62.2376L32.9451 62.671ZM33.2402 62.0255L33.4431 61.9609L33.0619 60.753L32.859 60.8175L33.2402 62.0255ZM34.4267 62.213L34.2699 61.715L34.9462 61.4999L34.7925 61.0112L34.1777 61.2048L33.6828 59.6341L35.2966 59.1239L35.4533 59.6188L35.0476 59.7479L35.232 60.3288L35.6378 60.1997L35.7945 60.6946L35.275 60.8605L35.4287 61.3493L36.0589 61.1495L36.2156 61.6474L34.4298 62.213H34.4267ZM34.4943 60.5655L34.7586 60.4825L34.5742 59.9016L34.3099 59.9845L34.4943 60.5655Z" fill="#222D8E"/>
<path d="M34.4912 63.8205L34.6664 63.8082L34.6142 63.0828L35.0015 63.0552L35.2289 66.1596L34.8416 66.1873L34.7894 65.4742L34.6142 65.4865L34.6388 65.8307L33.7873 65.8922L33.6552 64.0849L33.5383 64.0941L33.6736 65.969L33.2771 65.9967L33.0988 63.5562L33.9687 63.4916L34.1009 65.299L34.2177 65.2898L34.0855 63.4824L34.4636 63.4548L34.4912 63.8144V63.8205ZM34.5742 64.9517L34.7494 64.9394L34.7064 64.3308L34.5312 64.3431L34.5742 64.9517ZM35.3058 65.8338L35.1306 63.4117L36.0005 63.3472L36.1326 65.1545L36.2494 65.1453L36.1173 63.341L36.4954 63.3134L36.6675 65.6863L35.816 65.7477L35.6839 63.9404L35.5671 63.9496L35.7023 65.8031L35.3058 65.8338Z" fill="#222D8E"/>
<path d="M34.356 68.5172L32.9697 68.2958L33.0558 67.7672L34.442 67.9885L34.6326 66.7928L35.1275 66.8727L34.7986 68.9383C34.9093 68.9782 35.0476 69.0243 35.2136 69.0796C35.3796 69.135 35.5332 69.178 35.6654 69.2087L35.9667 67.3276L36.4646 67.4075L36.0712 69.8604C35.8406 69.8143 35.6039 69.7559 35.355 69.6852C35.106 69.6145 34.8939 69.5407 34.7125 69.4608L34.6357 69.9495L34.1408 69.8696L34.356 68.5202V68.5172Z" fill="#222D8E"/>
<path d="M32.9605 70.0263L33.4277 70.2108L32.9512 71.4095L33.6152 71.6708L33.4185 72.1656L32.7545 71.9013L32.2781 73.1031L31.8109 72.9187L32.9605 70.0263ZM32.8806 72.8234C32.9512 72.7097 33.0926 72.5714 33.3017 72.4054C33.5107 72.2394 33.7258 72.1349 33.9533 72.0919C33.8334 71.9351 33.7504 71.7292 33.7013 71.4679C33.6552 71.2066 33.6429 70.9946 33.6705 70.8286L34.1623 70.6841C34.1254 70.9362 34.147 71.2066 34.2269 71.4987C34.3068 71.7907 34.4605 71.9812 34.6972 72.0765L34.7341 72.0919L35.0783 71.2251L35.5455 71.4095L34.6418 73.6841L34.1746 73.4996L34.5189 72.6328L34.482 72.6175C34.23 72.516 33.9748 72.5622 33.7105 72.7496C33.4461 72.9371 33.2556 73.1093 33.1387 73.263L32.8775 72.8203L32.8806 72.8234Z" fill="#222D8E"/>
<path d="M30.1602 75.2424C30.1602 74.9842 30.277 74.683 30.5076 74.3326C30.735 73.9884 30.9656 73.764 31.2023 73.6595C31.4389 73.555 31.6449 73.5611 31.8232 73.6779C32.0014 73.7947 32.0875 73.9822 32.0844 74.2342C32.0814 74.4894 31.9646 74.7906 31.734 75.1379C31.5035 75.4852 31.2729 75.7158 31.0393 75.8203C30.8057 75.9279 30.5998 75.9217 30.4215 75.8049C30.2432 75.6881 30.1572 75.5006 30.1572 75.2424H30.1602ZM31.0209 75.2701C31.1254 75.1902 31.233 75.0642 31.3498 74.8889C31.4666 74.7107 31.5404 74.5601 31.5711 74.4371C31.6018 74.3142 31.5803 74.2281 31.5066 74.1789C31.4205 74.1205 31.3252 74.1328 31.2207 74.2066C31.1193 74.2834 31.0086 74.4095 30.8918 74.5877C30.775 74.7629 30.7043 74.9135 30.6736 75.0396C30.6428 75.1656 30.6736 75.2578 30.7565 75.3162C30.8303 75.3654 30.9195 75.35 31.0209 75.2701ZM32.6961 73.9146L33.1172 74.1912L32.5148 75.1041L32.9512 75.39L32.65 75.8479L32.2135 75.5621L31.4051 76.7916L30.9871 76.5149L32.6992 73.9146H32.6961ZM32.1582 76.8684C32.0014 76.7332 31.8754 76.6041 31.774 76.4842L32.0537 76.06C32.1367 76.143 32.2166 76.2229 32.2996 76.2967C32.3795 76.3735 32.4656 76.4412 32.5578 76.5057L33.6152 74.8982L34.0363 75.1748L32.6592 77.2649C32.481 77.1328 32.315 77.0006 32.1582 76.8653V76.8684Z" fill="#222D8E"/>
<path d="M27.5813 77.9473L29.2196 76.2721L30.0742 77.1082L29.7084 77.4801L29.2135 76.9944L27.9409 78.2946L27.5813 77.9442V77.9473ZM28.6971 79.4995L28.9891 79.2014L28.2698 78.4975L28.6356 78.1256L30.4276 79.8806L30.0619 80.2526L29.3457 79.5518L29.0537 79.8499L28.694 79.4995H28.6971ZM29.2903 78.5159C29.3549 78.4114 29.4686 78.2547 29.6285 78.0426C29.7883 77.8305 29.9512 77.643 30.111 77.477L30.5106 77.0682L31.7494 78.2823L30.5998 79.4565L30.234 79.0999L31.0178 78.2977L30.5076 77.7998L30.2955 78.0149C30.2125 78.101 30.0957 78.2393 29.9481 78.4329C29.8006 78.6266 29.6961 78.768 29.6377 78.8602L29.2873 78.5159H29.2903Z" fill="#222D8E"/>
</g>
<defs>
<radialGradient id="paint0_radial_1_2" cx="0" cy="0" r="1" gradientUnits="userSpaceOnUse" gradientTransform="translate(11.4407 5.16927) scale(28.5526 28.5517)">
<stop offset="0.3" stop-color="#FCF398"/>
<stop offset="0.4" stop-color="#F8DD7E"/>
<stop offset="0.59" stop-color="#F2B44D"/>
<stop offset="0.77" stop-color="#EE962A"/>
<stop offset="0.91" stop-color="#EB8314"/>
<stop offset="1" stop-color="#EB7D0D"/>
</radialGradient>
<radialGradient id="paint1_radial_1_2" cx="0" cy="0" r="1" gradientUnits="userSpaceOnUse" gradientTransform="translate(10.6262 0.109944) scale(41.687 41.6856)">
<stop offset="0.51" stop-color="#213392"/>
<stop offset="0.55" stop-color="#1E57AB"/>
<stop offset="0.6" stop-color="#1C76C0"/>
<stop offset="0.65" stop-color="#1A8FD1"/>
<stop offset="0.71" stop-color="#18A3DE"/>
<stop offset="0.77" stop-color="#17B0E7"/>
<stop offset="0.85" stop-color="#17B8ED"/>
<stop offset="1" stop-color="#17BBEF"/>
</radialGradient>
<radialGradient id="paint2_radial_1_2" cx="0" cy="0" r="1" gradientUnits="userSpaceOnUse" gradientTransform="translate(11.4407 51.2859) scale(28.5526 28.5517)">
<stop offset="0.3" stop-color="#FCF398"/>
<stop offset="0.4" stop-color="#F8DD7E"/>
<stop offset="0.59" stop-color="#F2B44D"/>
<stop offset="0.77" stop-color="#EE962A"/>
<stop offset="0.91" stop-color="#EB8314"/>
<stop offset="1" stop-color="#EB7D0D"/>
</radialGradient>
<radialGradient id="paint3_radial_1_2" cx="0" cy="0" r="1" gradientUnits="userSpaceOnUse" gradientTransform="translate(10.6262 46.2266) scale(41.687 41.6856)">
<stop offset="0.51" stop-color="#213392"/>
<stop offset="0.55" stop-color="#1E57AB"/>
<stop offset="0.6" stop-color="#1C76C0"/>
<stop offset="0.65" stop-color="#1A8FD1"/>
<stop offset="0.71" stop-color="#18A3DE"/>
<stop offset="0.77" stop-color="#17B0E7"/>
<stop offset="0.85" stop-color="#17B8ED"/>
<stop offset="1" stop-color="#17BBEF"/>
</radialGradient>
<clipPath id="clip0_1_2">
<rect width="289" height="85.2334" fill="white"/>
</clipPath>
</defs>
</svg>
