<svg width="289" height="50" viewBox="0 0 289 50" fill="none" xmlns="http://www.w3.org/2000/svg">
<g clip-path="url(#clip0_1_2)">
<path d="M55.157 31.1233H65.6639V14.8785H68.8428V22.8256H71.5484V14.8785H74.815V39.7774H71.5484V25.8583H68.8428V39.7774H65.6639V34.156H53.8889C53.1818 34.156 52.6617 34.0392 52.3286 33.8054C51.8962 33.5133 51.68 32.999 51.68 32.2744V14.8785H62.9232V17.9112H55.1511V31.1233H55.157Z" fill="white"/>
<path d="M94.6834 18.852C95.2328 19.3429 95.6652 19.9097 95.9807 20.5583C96.3314 21.2478 96.5125 21.9607 96.5125 22.7087C96.5125 24.6487 95.7762 26.2382 94.3036 27.477C92.9128 28.6749 91.2357 29.2709 89.2722 29.2709C87.3088 29.2709 85.655 28.6749 84.2408 27.477C82.7507 26.2206 82.0027 24.6312 82.0027 22.7087C82.0027 21.9607 82.1488 21.2595 82.4468 20.5875C82.7215 19.9798 83.1305 19.4013 83.6857 18.852H81.0093V15.8777H87.4256V13.4936H91.1363V15.8777H97.4358V18.852H94.701H94.6834ZM82.9435 30.9772H86.3855V36.5986H105.161V39.6314H84.9713C84.2817 39.6314 83.785 39.4619 83.4695 39.1288C83.1189 38.7782 82.9377 38.2056 82.9377 37.4225V30.9772H82.9435ZM86.59 20.1434C85.842 20.8505 85.4739 21.7036 85.4739 22.7029C85.4739 23.7021 85.8478 24.526 86.59 25.2331C87.338 25.9401 88.2204 26.2907 89.2372 26.2907C90.254 26.2907 91.1013 25.9401 91.8843 25.2331C92.7083 24.5085 93.1232 23.6612 93.1232 22.7029C93.1232 21.7445 92.7083 20.8505 91.8843 20.1434C91.1188 19.4773 90.2364 19.1442 89.2372 19.1442C88.2379 19.1442 87.3321 19.4773 86.59 20.1434ZM104.957 24.3273V31.6843H101.515V14.8785H104.957V21.2654H108.428V24.3273H104.957Z" fill="white"/>
<path d="M126.327 18.9397H131.656V14.8785H135.098V26.8283H131.656V21.9724H126.327V23.9709C126.327 24.7948 126.152 25.3909 125.795 25.7648C125.462 26.0979 124.959 26.2674 124.293 26.2674H113.962C113.272 26.2674 112.775 26.1038 112.46 25.7648C112.127 25.4142 111.957 24.8124 111.957 23.9709V14.8785H115.399V17.2918H122.932V14.8785H126.315V18.9397H126.327ZM113.079 28.9729H116.463V31.4155H131.68V28.9729H135.092V37.4167C135.092 38.2231 134.905 38.8016 134.531 39.1522C134.216 39.4853 133.719 39.6547 133.029 39.6547H115.136C114.447 39.6547 113.938 39.4853 113.605 39.1522C113.255 38.8016 113.073 38.2289 113.073 37.4459V28.9729H113.079ZM115.405 23.2638H122.938V20.1142H115.405V23.2638ZM131.68 34.2437H116.463V36.657H131.68V34.2437Z" fill="white"/>
<path d="M165.263 29.1833V35.7747H145.605V36.7739H165.263V39.6314H144.162C143.455 39.6314 142.946 39.4619 142.631 39.1288C142.28 38.7957 142.099 38.2289 142.099 37.4225V33.0107H161.757V32.0115H142.099V29.1891H146.336V28.1022H141.216V25.2156H166.116V28.1022H161.026V29.1891H165.263V29.1833ZM144.162 24.2631C143.496 24.2631 142.993 24.0995 142.66 23.7605C142.286 23.3866 142.099 22.8022 142.099 21.9958V18.3436H161.757V17.4905H142.099V14.8726H165.263V20.8154H145.605V21.6978H165.263V24.2572H144.162V24.2631ZM157.608 29.1833V28.0964H149.748V29.1833H157.608Z" fill="white"/>
<path d="M196.638 26.3842V29.4462H185.307V39.8943H181.894V29.4462H171.358V26.3842H191.928V17.8762H172.24V14.8726H195.375V26.3784H196.638V26.3842Z" fill="white"/>
<path d="M215.618 27.9152V35.3598H226.388V38.4218H201.488V35.3598H212.258V27.9152H215.612H215.618ZM215.793 18.4664C215.986 20.6635 216.968 22.2237 218.738 23.147C220.036 23.8131 222.163 24.2631 225.126 24.5027V27.7691C222.712 27.6347 220.591 27.2374 218.768 26.5946C216.53 25.7707 214.905 24.6137 213.882 23.1236C212.842 24.6546 211.194 25.8233 208.939 26.6238C207.133 27.2491 205.023 27.6347 202.61 27.7691V24.5319C205.573 24.2748 207.711 23.8073 209.026 23.1178C210.774 22.1945 211.744 20.646 211.942 18.4664H203.083V15.4044H224.775V18.4664H215.799H215.793Z" fill="white"/>
<path d="M256.909 24.5611V27.5938H250.756C251.562 28.2834 252.187 29.0664 252.637 29.9488C253.146 30.8895 253.403 31.9005 253.403 32.9815C253.403 35.4124 252.433 37.4225 250.487 39.012C248.699 40.502 246.589 41.25 244.158 41.25C241.727 41.25 239.518 40.502 237.713 39.012C235.79 37.4225 234.826 35.4124 234.826 32.9815C234.826 31.9238 235.06 30.9129 235.533 29.9488C235.965 29.0839 236.591 28.3009 237.415 27.5938H231.618V24.5611H240.769V20.4122H244.182V24.5611H252.187V17.9112H232.5V14.8785H255.635V24.5611H256.903H256.909ZM240.284 29.2417C239.168 30.2818 238.607 31.5265 238.607 32.9815C238.607 34.4365 239.168 35.6403 240.284 36.6629C241.365 37.6855 242.639 38.1939 244.112 38.1939C245.584 38.1939 246.829 37.6855 247.91 36.6629C249.049 35.6403 249.616 34.419 249.616 32.9815C249.616 31.544 249.049 30.2818 247.91 29.2417C246.811 28.2425 245.543 27.7399 244.112 27.7399C242.68 27.7399 241.383 28.2425 240.284 29.2417Z" fill="white"/>
<path d="M266.125 24.7072H282.341V14.8785H285.783V20.1785H289.254V23.2405H285.783V31.6843H282.341V27.7107H264.71C264.003 27.7107 263.495 27.5471 263.179 27.2082C262.829 26.8576 262.648 26.2791 262.648 25.4727V14.8785H276.865V17.9112H266.125V24.7072ZM263.77 31.0649H267.212V36.5986H285.987V39.6314H265.827C265.143 39.6314 264.629 39.4619 264.296 39.1288C263.945 38.7782 263.764 38.2056 263.764 37.4225V31.0649H263.77Z" fill="white"/>
<path d="M7.72141 26.6091C7.72141 18.8664 13.9981 12.5899 21.7411 12.5899C23.2472 12.5899 24.695 12.8297 26.0536 13.2692C23.8036 11.8276 21.1325 10.9885 18.2615 10.9885C10.2758 10.9885 3.79923 17.4617 3.79923 25.4503C3.79923 33.4389 9.70095 39.3158 17.1826 39.866C11.6774 37.9757 7.71834 32.7565 7.71834 26.6091H7.72141Z" fill="url(#paint0_radial_1_2)"/>
<path d="M23.2472 36.9306C21.3138 37.9541 19.1099 38.5351 16.7707 38.5351C9.11078 38.5351 2.8986 32.3231 2.8986 24.6634C2.8986 19.6963 5.51134 15.3409 9.4366 12.8911C9.48578 12.8635 9.53496 12.8327 9.58107 12.8081C10.6907 12.0612 11.911 11.4649 13.2205 11.0623C9.25832 12.2057 5.86176 14.6708 3.52874 17.9474C0.768453 21.6389 -0.559434 26.397 0.221314 31.3119C1.75515 40.9664 10.8413 47.5472 20.5115 46.0103C23.6253 45.5155 26.4194 44.2368 28.7278 42.411L23.2472 36.9306Z" fill="url(#paint1_radial_1_2)"/>
<path d="M26.9266 15.6083C26.9266 15.6083 20.2626 8.89531 12.535 17.9535C4.80744 27.0117 13.3649 17.806 15.907 18.2302C15.907 18.2302 9.58107 29.7043 13.6047 36.0238C14.6498 35.154 16.6201 20.6369 22.9399 19.0232C25.4296 18.3869 27.0127 18.639 27.9594 19.6687C29.1643 20.9781 29.4133 18.3439 26.9266 15.6052V15.6083Z" fill="#222D8E"/>
<path d="M19.1037 10.5029C18.6796 9.12276 19.4542 7.65661 20.8374 7.23243C22.2175 6.80826 23.6837 7.58284 24.1079 8.96293C24.5321 10.343 23.7575 11.8092 22.3773 12.2334C20.9972 12.6575 19.531 11.883 19.1068 10.5029H19.1037Z" fill="#222D8E"/>
<path d="M29.6654 16.1493C29.6223 16.1185 29.5424 16.0632 29.4225 15.9771C29.3026 15.8911 29.1612 15.762 28.9891 15.5837L28.6756 15.2579L30.3877 13.6073L31.1961 14.4464L30.8334 14.7938L30.3846 14.3296L29.3979 15.2825L29.5086 15.3962C29.5885 15.4792 29.6807 15.5591 29.7852 15.639C29.8897 15.7189 29.9666 15.7743 30.0127 15.8081L29.6623 16.1462L29.6654 16.1493ZM30.0373 17.6923L29.6869 17.3296L30.8457 16.2138L30.6859 16.0478L29.6408 17.056L29.2903 16.6933L31.6141 14.4495L31.9646 14.8122L31.107 15.639L31.2668 15.805L32.1797 14.9229L32.5301 15.2855L30.0373 17.6892V17.6923Z" fill="#222D8E"/>
<path d="M31.8662 20.4463L30.652 18.4207L31.4912 17.9166L31.7771 18.3931L31.3498 18.6482L32.2781 20.1943L31.8662 20.4402V20.4463ZM32.8898 18.8111C32.7392 18.9002 32.5701 18.9002 32.3826 18.8111C32.192 18.722 32.0322 18.5652 31.8969 18.3377C31.7709 18.1287 31.7125 17.9166 31.7187 17.7015C31.7279 17.4863 31.8047 17.3357 31.9584 17.2435C32.1183 17.1482 32.2904 17.1482 32.481 17.2435C32.6715 17.3388 32.8314 17.4925 32.9574 17.7046C33.0927 17.932 33.1541 18.1472 33.1449 18.3531C33.1326 18.559 33.0496 18.7097 32.8898 18.8049V18.8111ZM32.6193 18.3531C32.6746 18.3193 32.6961 18.2609 32.6777 18.1779C32.6623 18.0949 32.6316 18.015 32.5855 17.9382C32.5394 17.8613 32.481 17.7937 32.4133 17.7353C32.3457 17.68 32.2873 17.6677 32.232 17.6984C32.1736 17.7322 32.1551 17.7937 32.1767 17.8767C32.1982 17.9597 32.232 18.0427 32.2781 18.1195C32.3242 18.1963 32.3795 18.2609 32.441 18.3162C32.5056 18.3716 32.564 18.3838 32.6162 18.35L32.6193 18.3531ZM33.6029 19.767L33.397 19.4258L32.5332 19.9422L32.2658 19.4935L34.4543 18.181L34.7218 18.6297L33.8427 19.1553L34.0486 19.4965L33.5998 19.7639L33.6029 19.767ZM33.523 18.5252L32.5056 16.8285L32.8929 16.5949L33.9103 18.2916L33.523 18.5252ZM33.7843 17.8459L33.2248 16.9115L33.6029 16.6841L34.1623 17.6185L33.7843 17.8459Z" fill="#222D8E"/>
<path d="M32.9451 23.6706L32.2474 21.4637L33.6213 21.0303L33.7781 21.5282L33.5076 21.6143L33.8888 22.8223L34.1593 22.7362L34.3191 23.2372L32.9451 23.6706ZM33.2402 23.0251L33.4431 22.9606L33.0619 21.7526L32.859 21.8172L33.2402 23.0251ZM34.4267 23.2126L34.2699 22.7147L34.9462 22.4995L34.7925 22.0108L34.1777 22.2045L33.6828 20.6338L35.2966 20.1236L35.4533 20.6184L35.0476 20.7475L35.232 21.3285L35.6378 21.1994L35.7945 21.6942L35.2751 21.8602L35.4288 22.3489L36.0589 22.1491L36.2156 22.6471L34.4298 23.2126H34.4267ZM34.4943 21.5651L34.7587 21.4821L34.5742 20.9012L34.3099 20.9842L34.4943 21.5651Z" fill="#222D8E"/>
<path d="M34.4912 24.8202L34.6664 24.8079L34.6142 24.0825L35.0015 24.0548L35.229 27.1593L34.8417 27.1869L34.7894 26.4738L34.6142 26.4861L34.6388 26.8304L33.7873 26.8919L33.6552 25.0845L33.5384 25.0937L33.6736 26.9687L33.2771 26.9964L33.0988 24.5558L33.9687 24.4913L34.1009 26.2986L34.2177 26.2894L34.0855 24.4821L34.4636 24.4544L34.4912 24.814V24.8202ZM34.5742 25.9513L34.7494 25.939L34.7064 25.3304L34.5312 25.3427L34.5742 25.9513ZM35.3058 26.8335L35.1306 24.4114L36.0005 24.3468L36.1327 26.1542L36.2495 26.145L36.1173 24.3407L36.4954 24.313L36.6675 26.6859L35.816 26.7474L35.6839 24.9401L35.5671 24.9493L35.7023 26.8027L35.3058 26.8335Z" fill="#222D8E"/>
<path d="M34.356 29.5168L32.9697 29.2955L33.0558 28.7668L34.4421 28.9881L34.6326 27.7925L35.1275 27.8724L34.7986 29.9379C34.9093 29.9779 35.0476 30.024 35.2136 30.0793C35.3796 30.1346 35.5333 30.1777 35.6654 30.2084L35.9667 28.3273L36.4646 28.4072L36.0712 30.86C35.8406 30.8139 35.604 30.7555 35.355 30.6848C35.106 30.6141 34.8939 30.5404 34.7126 30.4604L34.6357 30.9492L34.1408 30.8692L34.356 29.5199V29.5168Z" fill="#222D8E"/>
<path d="M32.9605 31.026L33.4277 31.2104L32.9513 32.4092L33.6152 32.6704L33.4185 33.1653L32.7545 32.901L32.2781 34.1028L31.8109 33.9184L32.9605 31.026ZM32.8806 33.8231C32.9513 33.7094 33.0927 33.571 33.3017 33.4051C33.5107 33.2391 33.7259 33.1346 33.9533 33.0915C33.8334 32.9348 33.7504 32.7288 33.7013 32.4676C33.6552 32.2063 33.6429 31.9942 33.6705 31.8282L34.1623 31.6838C34.1255 31.9358 34.147 32.2063 34.2269 32.4983C34.3068 32.7903 34.4605 32.9809 34.6972 33.0762L34.7341 33.0915L35.0783 32.2247L35.5456 32.4092L34.6419 34.6837L34.1746 34.4993L34.5189 33.6325L34.482 33.6171C34.23 33.5157 33.9748 33.5618 33.7105 33.7493C33.4461 33.9368 33.2556 34.1089 33.1388 34.2626L32.8775 33.82L32.8806 33.8231Z" fill="#222D8E"/>
<path d="M30.1602 36.2421C30.1602 35.9839 30.277 35.6827 30.5076 35.3323C30.735 34.988 30.9656 34.7636 31.2023 34.6591C31.4389 34.5546 31.6449 34.5608 31.8232 34.6776C32.0014 34.7944 32.0875 34.9819 32.0844 35.2339C32.0814 35.489 31.9646 35.7903 31.734 36.1376C31.5035 36.4849 31.273 36.7154 31.0393 36.8199C30.8057 36.9275 30.5998 36.9214 30.4215 36.8046C30.2432 36.6878 30.1572 36.5003 30.1572 36.2421H30.1602ZM31.0209 36.2697C31.1254 36.1898 31.233 36.0638 31.3498 35.8886C31.4666 35.7103 31.5404 35.5597 31.5711 35.4368C31.6019 35.3138 31.5803 35.2278 31.5066 35.1786C31.4205 35.1202 31.3252 35.1325 31.2207 35.2062C31.1193 35.2831 31.0086 35.4091 30.8918 35.5874C30.775 35.7626 30.7043 35.9132 30.6736 36.0392C30.6428 36.1652 30.6736 36.2575 30.7566 36.3159C30.8303 36.365 30.9195 36.3497 31.0209 36.2697ZM32.6961 34.9142L33.1172 35.1909L32.5148 36.1038L32.9513 36.3896L32.65 36.8476L32.2135 36.5618L31.4051 37.7912L30.9871 37.5146L32.6992 34.9142H32.6961ZM32.1582 37.8681C32.0015 37.7328 31.8754 37.6037 31.774 37.4839L32.0537 37.0597C32.1367 37.1427 32.2166 37.2226 32.2996 37.2964C32.3795 37.3732 32.4656 37.4408 32.5578 37.5054L33.6152 35.8978L34.0363 36.1745L32.6592 38.2646C32.481 38.1324 32.315 38.0002 32.1582 37.865V37.8681Z" fill="#222D8E"/>
<path d="M27.5813 38.9469L29.2196 37.2718L30.0742 38.1078L29.7084 38.4797L29.2135 37.9941L27.9409 39.2943L27.5813 38.9439V38.9469ZM28.6971 40.4992L28.9891 40.201L28.2698 39.4971L28.6356 39.1252L30.4277 40.8803L30.0619 41.2522L29.3457 40.5514L29.0537 40.8496L28.694 40.4992H28.6971ZM29.2903 39.5156C29.3549 39.4111 29.4686 39.2543 29.6285 39.0422C29.7883 38.8301 29.9512 38.6427 30.1111 38.4767L30.5107 38.0679L31.7494 39.282L30.5998 40.4561L30.234 40.0996L31.0178 39.2974L30.5076 38.7994L30.2955 39.0146C30.2125 39.1006 30.0957 39.2389 29.9481 39.4326C29.8006 39.6262 29.6961 39.7676 29.6377 39.8598L29.2873 39.5156H29.2903Z" fill="#222D8E"/>
</g>
<defs>
<radialGradient id="paint0_radial_1_2" cx="0" cy="0" r="1" gradientUnits="userSpaceOnUse" gradientTransform="translate(11.4407 12.2856) scale(28.5526 28.5517)">
<stop offset="0.3" stop-color="#FCF398"/>
<stop offset="0.4" stop-color="#F8DD7E"/>
<stop offset="0.59" stop-color="#F2B44D"/>
<stop offset="0.77" stop-color="#EE962A"/>
<stop offset="0.91" stop-color="#EB8314"/>
<stop offset="1" stop-color="#EB7D0D"/>
</radialGradient>
<radialGradient id="paint1_radial_1_2" cx="0" cy="0" r="1" gradientUnits="userSpaceOnUse" gradientTransform="translate(10.6262 7.22629) scale(41.687 41.6856)">
<stop offset="0.51" stop-color="#213392"/>
<stop offset="0.55" stop-color="#1E57AB"/>
<stop offset="0.6" stop-color="#1C76C0"/>
<stop offset="0.65" stop-color="#1A8FD1"/>
<stop offset="0.71" stop-color="#18A3DE"/>
<stop offset="0.77" stop-color="#17B0E7"/>
<stop offset="0.85" stop-color="#17B8ED"/>
<stop offset="1" stop-color="#17BBEF"/>
</radialGradient>
<clipPath id="clip0_1_2">
<rect width="289" height="50" fill="white"/>
</clipPath>
</defs>
</svg>
